<?xml version="1.0" encoding="utf-8"?>
<!-- Generator: Adobe Illustrator 23.0.2, SVG Export Plug-In . SVG Version: 6.00 Build 0)  -->
<svg version="1.1" xmlns="http://www.w3.org/2000/svg" xmlns:xlink="http://www.w3.org/1999/xlink" x="0px" y="0px"
	 viewBox="0 0 120.17 124.03" style="enable-background:new 0 0 120.17 124.03;" xml:space="preserve">
<style type="text/css">
	.st0{display:none;fill:none;}
	.st1{fill:#FDBA33;}
</style>
<g id="Layer_1">
</g>
<g id="Layer_2">
	<path class="st0" d="M-75.73,437.39c0,0-37.03-61.43-109.89-59.42s-123.08,63.36-124.61,120.24s41.28,131.27,119.85,132.75
		c56.87,0.92,73.31-24.75,73.31-24.75c17.96-20.77,57.92-116.64,57.92-116.64l-101.4-0.06c0,0-6.8,18.53-14.68,39.5
		c-10.31,27.44-22.45,59.08-23.62,58.95c-2.06-0.23-66.73-63.75-66.96-65.12c-0.23-1.38,38.06-92.87,39.44-94.24
		s104.33-11.69,107.08-11.46C-116.54,417.36-75.73,437.39-75.73,437.39z"/>
	<g>
		<path class="st1" d="M109.98,63.83c-0.01,27.84-22.5,50.29-50.34,50.27C31.8,114.08,9.35,91.61,9.37,63.75
			c0.01-27.84,22.5-50.29,50.35-50.27C87.56,13.5,110,35.98,109.98,63.83z M59.65,17.87C34.2,17.9,13.67,38.47,13.75,63.84
			c0.08,25.44,20.45,45.81,45.88,45.87c25.39,0.06,45.95-20.47,45.97-45.91C105.62,38.38,85.07,17.84,59.65,17.87z"/>
		<path class="st1" d="M48.62,30.94c3.55,0,7.09-0.01,10.64,0c1.86,0,2.55,0.54,2.88,2.37c1.09,5.98,1.99,11.99,1.88,18.1
			c-0.1,5.42-2.26,9.68-7.01,12.56c-2.84,1.72-2.62,1.01-1.98,4.69c0.74,4.31,1.77,8.59,2.28,12.92c0.51,4.32,0.43,8.7-1.04,12.9
			c-0.42,1.2-1.01,2.39-1.76,3.41c-3.22,4.36-9.28,4.05-12.14-0.58c-1.57-2.54-2.06-5.39-2.26-8.29
			c-0.48-6.78,0.41-13.41,2.26-19.93c0.04-0.15,0.1-0.31,0.13-0.46c0.63-3.05,0.67-3.12-2.02-4.74c-4.99-3-7.06-7.56-7.06-13.17
			c0-5.76,0.42-11.5,1.61-17.16c0.44-2.11,1.06-2.61,3.21-2.62C41.69,30.94,45.15,30.94,48.62,30.94z M39.22,35.49
			c-1.04,4.31-1.69,12.95-1.32,17.26c0.25,2.85,1.42,5.16,3.91,6.72c0.99,0.62,1.98,1.25,2.91,1.95c1.68,1.26,2.63,2.95,2.49,5.09
			c-0.09,1.28-0.23,2.58-0.55,3.81c-1.45,5.59-2.63,11.23-2.2,17.04c0.17,2.26,0.65,4.53,1.24,6.72c0.36,1.32,1.21,2.45,2.9,2.47
			c1.67,0.02,2.42-1.1,3.03-2.36c0.35-0.72,0.61-1.49,0.79-2.27c1.02-4.43,0.84-8.9,0.11-13.32c-0.59-3.56-1.48-7.08-2.17-10.63
			c-0.58-3.01,0.45-5.38,3.08-7.02c0.85-0.53,1.7-1.08,2.54-1.63c1.94-1.26,3.05-3.07,3.4-5.33c0.18-1.15,0.35-2.34,0.26-3.49
			c-0.36-4.33-0.77-8.66-1.3-12.97c-0.29-2.35-0.42-2.33-2.81-2.06c-0.03,0-0.06,0.04-0.23,0.15c0,0.3,0,0.69,0,1.08
			c0,4.35,0,8.71,0,13.06c0,0.32,0.01,0.65-0.01,0.97c-0.08,1.25-0.97,2.14-2.15,2.16c-1.24,0.02-2.2-0.87-2.21-2.2
			c-0.03-4.63-0.02-9.27-0.02-13.91c0-0.43,0-0.85,0-1.3c-1.53,0-2.88,0-4.34,0c0,0.51,0,0.95,0,1.38c0,4.51,0.01,9.03-0.01,13.54
			c0,1.31-0.66,2.23-1.74,2.44c-1.07,0.2-1.96-0.17-2.41-1.16c-0.24-0.52-0.26-1.17-0.27-1.76c-0.02-4.35-0.01-8.71-0.01-13.06
			c0-0.43,0-0.87,0-1.38C41.12,35.49,40.21,35.49,39.22,35.49z"/>
		<path class="st1" d="M68.4,61.88c0-9.31,0-18.62,0-27.93c0-2.73,1.48-3.63,3.9-2.38c12.06,6.25,16.94,20.49,11.24,32.82
			c-0.98,2.12-2.07,4.18-3.1,6.27c-1.12,2.27-1.29,4.59-0.52,7.03c1.78,5.63,2.18,11.37,1.01,17.16c-0.25,1.23-0.77,2.46-1.41,3.56
			c-1.05,1.81-2.76,2.68-4.86,2.58c-2.24-0.1-3.89-1.19-4.82-3.27c-1.25-2.83-1.38-5.87-1.4-8.88c-0.06-8.99-0.02-17.97-0.02-26.96
			C68.41,61.88,68.4,61.88,68.4,61.88z M72.8,37.45c0,0.64,0,1.03,0,1.41c0,3.51-0.01,7.01,0,10.52c0.05,13.78,0.08,27.56,0.2,41.33
			c0.01,1.63,0.41,3.26,0.76,4.87c0.08,0.37,0.68,0.86,1.06,0.88c0.39,0.02,0.94-0.39,1.17-0.76c0.33-0.53,0.51-1.18,0.63-1.8
			c0.91-4.75,0.71-9.46-0.81-14.06c-1.42-4.31-0.95-8.39,1.2-12.34c0.92-1.69,1.83-3.4,2.62-5.16c3.05-6.78,2.39-13.31-1.56-19.53
			C76.75,40.72,75.03,39,72.8,37.45z"/>
	</g>
</g>
</svg>
